<?xml version="1.0" encoding="utf-8"?>
<!-- Generator: Adobe Illustrator 16.0.0, SVG Export Plug-In . SVG Version: 6.00 Build 0)  -->
<!DOCTYPE svg PUBLIC "-//W3C//DTD SVG 1.1//EN" "http://www.w3.org/Graphics/SVG/1.1/DTD/svg11.dtd">
<svg version="1.1" id="Layer_1" xmlns="http://www.w3.org/2000/svg" xmlns:xlink="http://www.w3.org/1999/xlink" x="0px" y="0px"
	 width="745px" height="560px" viewBox="0 0 745 560" enable-background="new 0 0 745 560" xml:space="preserve">
<g>
	<g>
		<linearGradient id="SVGID_1_" gradientUnits="userSpaceOnUse" x1="510.5928" y1="168.7422" x2="270.2068" y2="249.6887">
			<stop  offset="0" style="stop-color:#D6E3FA"/>
			<stop  offset="0.8721" style="stop-color:#A8BEE6"/>
			<stop  offset="1" style="stop-color:#A1B8E3"/>
		</linearGradient>
		<path fill="url(#SVGID_1_)" d="M511.93,159.086H370.888c-3.168,0-5.743,2.574-5.743,5.746v54.416c0,3.171,2.574,5.743,5.743,5.743
			H511.93c3.175,0,5.743-2.571,5.743-5.743v-54.416C517.673,161.66,515.104,159.086,511.93,159.086z"/>
		<linearGradient id="SVGID_2_" gradientUnits="userSpaceOnUse" x1="420.3535" y1="169.0005" x2="375.9357" y2="209.4084">
			<stop  offset="0" style="stop-color:#59A3F2"/>
			<stop  offset="0.6706" style="stop-color:#2B75DB"/>
			<stop  offset="1" style="stop-color:#135DCF"/>
		</linearGradient>
		<path fill="url(#SVGID_2_)" d="M413.537,192.038c0,10.223-8.286,18.509-18.509,18.509c-10.217,0-18.509-8.286-18.509-18.509
			c0-10.22,8.292-18.506,18.509-18.506C405.251,173.532,413.537,181.818,413.537,192.038z"/>
		<defs>
			<filter id="Adobe_OpacityMaskFilter" filterUnits="userSpaceOnUse" x="425.66" y="178.501" width="76.746" height="27.076">
				<feFlood  style="flood-color:white;flood-opacity:1" result="back"/>
				<feBlend  in="SourceGraphic" in2="back" mode="normal"/>
			</filter>
		</defs>
		<mask maskUnits="userSpaceOnUse" x="425.66" y="178.501" width="76.746" height="27.076" id="SVGID_3_">
			<g filter="url(#Adobe_OpacityMaskFilter)">
				<defs>
					<filter id="Adobe_OpacityMaskFilter_1_" filterUnits="userSpaceOnUse" x="425.66" y="178.501" width="76.746" height="27.076">
						<feFlood  style="flood-color:white;flood-opacity:1" result="back"/>
						<feBlend  in="SourceGraphic" in2="back" mode="normal"/>
					</filter>
				</defs>
				<mask maskUnits="userSpaceOnUse" x="425.66" y="178.501" width="76.746" height="27.076" id="SVGID_3_">
					<g filter="url(#Adobe_OpacityMaskFilter_1_)">
					</g>
				</mask>
				<linearGradient id="SVGID_4_" gradientUnits="userSpaceOnUse" x1="436.2813" y1="192.0396" x2="532.6544" y2="192.0396">
					<stop  offset="0.0014" style="stop-color:#FFFFFF"/>
					<stop  offset="0.0887" style="stop-color:#F8F8F8"/>
					<stop  offset="0.2177" style="stop-color:#E4E4E4"/>
					<stop  offset="0.3726" style="stop-color:#C3C3C3"/>
					<stop  offset="0.5474" style="stop-color:#969696"/>
					<stop  offset="0.7391" style="stop-color:#5B5B5B"/>
					<stop  offset="0.9418" style="stop-color:#151515"/>
					<stop  offset="1" style="stop-color:#000000"/>
				</linearGradient>
				<path mask="url(#SVGID_3_)" fill="url(#SVGID_4_)" d="M502.406,182.784v0.003c0,2.364-1.918,4.282-4.282,4.282h-68.182
					c-2.364,0-4.282-1.918-4.282-4.282v-0.003c0-2.364,1.918-4.282,4.282-4.282h68.182
					C500.488,178.501,502.406,180.419,502.406,182.784z M472.796,201.292L472.796,201.292c0,2.367-1.919,4.285-4.282,4.285h-38.571
					c-2.364,0-4.282-1.918-4.282-4.285l0,0c0-2.367,1.918-4.282,4.282-4.282h38.571C470.877,197.01,472.796,198.925,472.796,201.292
					z"/>
			</g>
		</mask>
		<linearGradient id="SVGID_5_" gradientUnits="userSpaceOnUse" x1="436.2813" y1="192.0396" x2="532.6544" y2="192.0396">
			<stop  offset="0.0014" style="stop-color:#FFFFFF"/>
			<stop  offset="1" style="stop-color:#FFFFFF"/>
		</linearGradient>
		<path fill="url(#SVGID_5_)" d="M502.406,182.784v0.003c0,2.364-1.918,4.282-4.282,4.282h-68.182c-2.364,0-4.282-1.918-4.282-4.282
			v-0.003c0-2.364,1.918-4.282,4.282-4.282h68.182C500.488,178.501,502.406,180.419,502.406,182.784z M472.796,201.292
			L472.796,201.292c0,2.367-1.919,4.285-4.282,4.285h-38.571c-2.364,0-4.282-1.918-4.282-4.285l0,0c0-2.367,1.918-4.282,4.282-4.282
			h38.571C470.877,197.01,472.796,198.925,472.796,201.292z"/>
	</g>
	<linearGradient id="SVGID_6_" gradientUnits="userSpaceOnUse" x1="120.1421" y1="80.8574" x2="-141.1159" y2="80.8574">
		<stop  offset="0" style="stop-color:#59A3F2"/>
		<stop  offset="0.6706" style="stop-color:#2B75DB"/>
		<stop  offset="1" style="stop-color:#135DCF"/>
	</linearGradient>
	<path opacity="0.3" fill="url(#SVGID_6_)" d="M63.463,80.857c0,9.75-7.902,17.652-17.649,17.652
		c-9.746,0-17.648-7.902-17.648-17.652s7.902-17.652,17.648-17.652C55.561,63.206,63.463,71.108,63.463,80.857z M144.133,67.946
		h-65.02c-2.259,0-4.084,1.829-4.084,4.084v0.003c0,2.256,1.825,4.084,4.084,4.084h65.02c2.259,0,4.084-1.829,4.084-4.084V72.03
		C148.217,69.774,146.392,67.946,144.133,67.946z M115.896,85.598H79.113c-2.259,0-4.084,1.829-4.084,4.084v0.003
		c0,2.253,1.825,4.084,4.084,4.084h36.783c2.253,0,4.084-1.832,4.084-4.084v-0.003C119.98,87.426,118.149,85.598,115.896,85.598z"/>
	<linearGradient id="SVGID_7_" gradientUnits="userSpaceOnUse" x1="710.9932" y1="301.3623" x2="449.7363" y2="301.3623">
		<stop  offset="0" style="stop-color:#59A3F2"/>
		<stop  offset="0.6706" style="stop-color:#2B75DB"/>
		<stop  offset="1" style="stop-color:#135DCF"/>
	</linearGradient>
	<path opacity="0.3" fill="url(#SVGID_7_)" d="M654.314,301.359c0,9.752-7.902,17.654-17.648,17.654s-17.648-7.902-17.648-17.654
		c0-9.747,7.902-17.649,17.648-17.649S654.314,291.612,654.314,301.359z M734.984,288.45h-65.02c-2.259,0-4.084,1.832-4.084,4.085
		l0,0c0,2.258,1.825,4.084,4.084,4.084h65.02c2.259,0,4.084-1.826,4.084-4.084l0,0C739.068,290.282,737.243,288.45,734.984,288.45z
		 M706.747,306.1h-36.782c-2.259,0-4.084,1.831-4.084,4.084v0.006c0,2.253,1.825,4.084,4.084,4.084h36.782
		c2.253,0,4.085-1.831,4.085-4.084v-0.006C710.832,307.931,709,306.1,706.747,306.1z"/>
	<g>
		<linearGradient id="SVGID_8_" gradientUnits="userSpaceOnUse" x1="297.2368" y1="146.3423" x2="70.2393" y2="222.7804">
			<stop  offset="0" style="stop-color:#D6E3FA"/>
			<stop  offset="0.8721" style="stop-color:#A8BEE6"/>
			<stop  offset="1" style="stop-color:#A1B8E3"/>
		</linearGradient>
		<path fill="url(#SVGID_8_)" d="M291.994,116.597H171.813c-2.655,0-4.802,2.15-4.802,4.805v93.878c0,2.655,2.147,4.805,4.802,4.805
			h120.181c2.655,0,4.809-2.15,4.809-4.805v-93.878C296.803,118.748,294.649,116.597,291.994,116.597z"/>
		<g>
			<path fill="#FFFFFF" d="M238.918,164.441c4.901,0,8.874-3.973,8.874-8.877c0-4.904-3.973-8.88-8.874-8.88
				c-4.907,0-8.88,3.976-8.88,8.88C230.038,160.469,234.011,164.441,238.918,164.441z"/>
			<path fill="#FFFFFF" d="M186.59,134.481v67.718h90.633v-67.718H186.59z M273.554,189.983l-21.907-22.59l-11.826,11.256
				l4.202,10.359l-27.928-31.779l-25.835,32.225v-51.304h83.293V189.983z"/>
		</g>
	</g>
	<g>
		<g>
			<g>
				<linearGradient id="SVGID_9_" gradientUnits="userSpaceOnUse" x1="235.6548" y1="293.8613" x2="235.6548" y2="333.4251">
					<stop  offset="0" style="stop-color:#59A3F2"/>
					<stop  offset="0.6706" style="stop-color:#2B75DB"/>
					<stop  offset="1" style="stop-color:#135DCF"/>
				</linearGradient>
				<path fill="url(#SVGID_9_)" d="M239.475,303.067c0,0,6.312-15.478-1.38-18.2c-3.317,0.26-4.239,7.859-5.118,7.977
					c-0.879,0.118-1.931-4.69-3.156-1.732C228.596,294.063,229.524,312.287,239.475,303.067z"/>
				<linearGradient id="SVGID_10_" gradientUnits="userSpaceOnUse" x1="231.9048" y1="287.1172" x2="231.9048" y2="386.551">
					<stop  offset="0" style="stop-color:#D6E3FA"/>
					<stop  offset="0.8721" style="stop-color:#A8BEE6"/>
					<stop  offset="1" style="stop-color:#A1B8E3"/>
				</linearGradient>
				<path fill="url(#SVGID_10_)" d="M240.626,345.246c0,0.056,0,0.056,0,0.105c-2.55,5.816-6.578,7.599-11.628,6.732
					c-1.126-0.204-2.197-0.612-3.162-1.12c-2.859-1.634-4.901-4.592-5.309-8.063c-0.303-2.648-0.205-5.761,0.154-9.078
					c1.12-11.528,5.359-25.662,7.296-32.19c6.634-5.867,13.775,0,13.775,0C244.506,324.23,243.794,337.9,240.626,345.246z"/>
				<linearGradient id="SVGID_11_" gradientUnits="userSpaceOnUse" x1="235.3877" y1="300.041" x2="227.4163" y2="327.0212">
					<stop  offset="0" style="stop-color:#FFFFFF"/>
					<stop  offset="0.1208" style="stop-color:#FAFBFC"/>
					<stop  offset="0.27" style="stop-color:#EBEFF5"/>
					<stop  offset="0.434" style="stop-color:#D1DAE9"/>
					<stop  offset="0.6088" style="stop-color:#AEBED8"/>
					<stop  offset="0.7922" style="stop-color:#819AC3"/>
					<stop  offset="0.98" style="stop-color:#4B6EA9"/>
					<stop  offset="1" style="stop-color:#4569A6"/>
				</linearGradient>
				<path opacity="0.36" fill="url(#SVGID_11_)" d="M220.75,343.767h8.651c-4.623-12.37,0.198-33.496,3.348-44.573
					c-1.547,0.297-3.168,1.021-4.759,2.426c-2.457,8.435-8.806,29.456-7.482,41.307C220.545,343.223,220.688,343.477,220.75,343.767
					z"/>
			</g>
			<g>
				<linearGradient id="SVGID_12_" gradientUnits="userSpaceOnUse" x1="98.5264" y1="293.8613" x2="98.5264" y2="333.4218">
					<stop  offset="0" style="stop-color:#59A3F2"/>
					<stop  offset="0.6706" style="stop-color:#2B75DB"/>
					<stop  offset="1" style="stop-color:#135DCF"/>
				</linearGradient>
				<path fill="url(#SVGID_12_)" d="M100.16,317.405c0,0-14.017-9.115-9.245-15.736c2.871-1.678,7.958,4.047,8.75,3.639
					c0.786-0.409-1.089-4.951,1.603-3.225S113.588,319.305,100.16,317.405z"/>
				<linearGradient id="SVGID_13_" gradientUnits="userSpaceOnUse" x1="118.5913" y1="287.1133" x2="118.5913" y2="386.5532">
					<stop  offset="0" style="stop-color:#D6E3FA"/>
					<stop  offset="0.8721" style="stop-color:#A8BEE6"/>
					<stop  offset="1" style="stop-color:#A1B8E3"/>
				</linearGradient>
				<path fill="url(#SVGID_13_)" d="M97.461,317.529c0,0,2.525-8.887,11.306-7.865c6.825,5.532,24.022,19.184,29.697,29.672
					c2.178,4.035,1.485,9.109-1.764,12.346C128.533,359.819,116.639,353.866,97.461,317.529z"/>
				<linearGradient id="SVGID_14_" gradientUnits="userSpaceOnUse" x1="102.0933" y1="319.0859" x2="132.7559" y2="341.5718">
					<stop  offset="0" style="stop-color:#FFFFFF"/>
					<stop  offset="0.1208" style="stop-color:#FAFBFC"/>
					<stop  offset="0.27" style="stop-color:#EBEFF5"/>
					<stop  offset="0.434" style="stop-color:#D1DAE9"/>
					<stop  offset="0.6088" style="stop-color:#AEBED8"/>
					<stop  offset="0.7922" style="stop-color:#819AC3"/>
					<stop  offset="0.98" style="stop-color:#4B6EA9"/>
					<stop  offset="1" style="stop-color:#4569A6"/>
				</linearGradient>
				<path opacity="0.36" fill="url(#SVGID_14_)" d="M138.465,339.336c-5.675-10.488-22.872-24.14-29.697-29.672
					c-2.11-0.242-3.855,0.086-5.297,0.724c11.275,9.245,34.004,30.205,27.736,44.363c2.005-0.347,3.83-1.404,5.495-3.069
					C139.95,348.445,140.643,343.371,138.465,339.336z"/>
			</g>
			<g>
				<path fill="#FD4626" d="M223.596,538.975c0,0,2.32,4.034,1.627,7.593c-4.356,4.245-13.076,0.687-13.076,0.687
					s-0.916-6.807,1.832-8.279C216.962,537.391,223.596,538.975,223.596,538.975z"/>
				<path fill="#0E6563" d="M225.347,544.902c0,0,0.798,2.581,0.507,4.592c-5.334,1.721-14.227,0.396-14.227,0.396
					s-0.681-2.865,0.377-4.642C218.917,547.638,225.347,544.902,225.347,544.902z"/>
			</g>
			<g>
				<path fill="#FD4626" d="M144.238,538.398c0,0-2.321,4.035-1.627,7.594c4.356,4.245,13.076,0.687,13.076,0.687
					s0.916-6.801-1.832-8.28C150.872,536.814,144.238,538.398,144.238,538.398z"/>
				<path fill="#0E6563" d="M142.487,544.327c0,0-0.798,2.581-0.507,4.592c5.334,1.721,14.227,0.402,14.227,0.402
					s0.681-2.871-0.377-4.647C148.917,547.063,142.487,544.327,142.487,544.327z"/>
			</g>
			<linearGradient id="SVGID_15_" gradientUnits="userSpaceOnUse" x1="182.2729" y1="403.6309" x2="182.2729" y2="610.496">
				<stop  offset="0" style="stop-color:#255EB0"/>
				<stop  offset="0.5709" style="stop-color:#163F82"/>
				<stop  offset="1" style="stop-color:#09265D"/>
			</linearGradient>
			<path fill="url(#SVGID_15_)" d="M145.234,532.526c-1.899-11.869-6.745-35.242-3.465-49.556c-1.956-1.85-0.612-2.382,0.718-2.586
				c0.266-0.812,0.569-1.585,0.91-2.309c0.501-1.083-0.161-5.285-0.167-6.671c-2.964-18.243,3.855-37.507,2.104-47.959
				c-5.922-20.569,5.959-44.79,5.965-44.796c0.693-1.071,15.421,3.478,23.583,5.94c3.051-1.652,23.589-4.4,26.547-4.586
				c0,0.013,0.941-0.012,0.941,0c0.6,4.066,5.012,11.845,5.78,15.879c6.417,33.894,6.924,54.587,7.5,62.743
				c0.606,8.706-1.652,10.724,2.426,25.86c4.109,15.241,3.447,31.398,4.746,47.136c0.093,1.058,1.331,1.336,0.242,2.977
				c0.161,2.147,0.773,3.997,0.823,5.229c-4.827-1.262-10.681,0.161-10.681,0.161c-0.18-0.773,0.056-1.851-0.39-2.222
				c-2.716,0.148-2.593-2.395-1.498-3.316c-5.111-10.873-15.935-28.887-16.751-43.553c-2.395-1.231-1.559-5.224-0.34-5.786
				c0.037-0.854,0.111-1.677,0.235-2.47c0.186-1.182-1.615-5.03-2.005-6.367c-7.896-16.702-6.689-37.104-11.263-46.665
				c-0.501-0.792-1.219-1.578-1.572-2.451c-0.31-0.736-0.712-4.177-2.185-2.048c-1.139,1.64-0.65,3.726-0.953,5.575
				c-0.501,3.032-1.033,6.059-1.603,9.078c-0.866,4.635-1.826,9.245-2.847,13.843c-0.544,2.42-1.114,4.833-1.634,7.259
				c-1.825,8.534-4.554,9.853-4.833,25.521c-0.272,15.786-5.383,31.133-8.49,46.609c-0.21,1.04,0.904,1.652-0.6,2.921
				c-0.433,2.117-0.619,3.862-0.91,5.063c-0.65-1.727-10.285-2.265-10.285-2.265c0.266-0.823,0.161-1.721-0.161-2.197
				C142.475,535.905,143.929,533.108,145.234,532.526z"/>
			<g opacity="0.3">
				<linearGradient id="SVGID_16_" gradientUnits="userSpaceOnUse" x1="124.9209" y1="475.4492" x2="174.3954" y2="483.429">
					<stop  offset="0" style="stop-color:#FFFFFF"/>
					<stop  offset="0.1114" style="stop-color:#F5F5F8"/>
					<stop  offset="0.299" style="stop-color:#DBDBE5"/>
					<stop  offset="0.5396" style="stop-color:#B0B1C6"/>
					<stop  offset="0.8209" style="stop-color:#76789C"/>
					<stop  offset="1" style="stop-color:#4D4F7E"/>
				</linearGradient>
				<path fill="url(#SVGID_16_)" d="M145.284,538.702c0.266-0.823,0.198-1.695-0.124-2.179c-0.173-0.037-0.328-0.086-0.477-0.142
					c3.559-22.637,17.853-44.271,17.408-53.226c-0.489-9.814,4.666-36.813,8.595-45.409c3.923-8.589,6.194-14.505,6.194-14.505
					s0.068,1.33,0.186,3.769c-2.692,17.358-5.501,28.41-6.665,33.855c-1.825,8.534-4.554,9.853-4.833,25.521
					c-0.272,15.786-5.383,31.133-8.49,46.609c-0.21,1.04,0.904,1.652-0.6,2.921c-0.433,2.117-0.619,3.862-0.91,5.063
					C154.876,539.247,145.284,538.702,145.284,538.702z"/>
				<linearGradient id="SVGID_17_" gradientUnits="userSpaceOnUse" x1="152.1353" y1="517.9404" x2="159.9378" y2="397.3548">
					<stop  offset="0" style="stop-color:#FFFFFF"/>
					<stop  offset="0.1114" style="stop-color:#F5F5F8"/>
					<stop  offset="0.299" style="stop-color:#DBDBE5"/>
					<stop  offset="0.5396" style="stop-color:#B0B1C6"/>
					<stop  offset="0.8209" style="stop-color:#76789C"/>
					<stop  offset="1" style="stop-color:#4D4F7E"/>
				</linearGradient>
				<path fill="url(#SVGID_17_)" d="M166.757,391.051c-27.247,15.155-12.271,31.728-18.163,48.906
					c-5.891,17.185,0,29.703-2.073,37.735c-2.073,8.032-1.856,14.549-2.593,25.105c-0.427,6.09,0.619,15.279,0.254,23.46
					c-2.153-12.624-5.18-31.188-2.414-43.287c-1.956-1.85-0.612-2.382,0.718-2.586c0.266-0.812,0.569-1.585,0.91-2.309
					c0.501-1.083-0.161-5.285-0.167-6.671c-2.964-18.243,3.855-37.507,2.104-47.959c-5.922-20.569,5.959-44.79,5.965-44.796
					c0.736-1.133,17.185,4.021,24.938,6.349C173.694,386.917,170.557,388.935,166.757,391.051z"/>
			</g>
			<g opacity="0.11">
				<linearGradient id="SVGID_18_" gradientUnits="userSpaceOnUse" x1="178.0342" y1="453.4502" x2="228.296" y2="448.1315">
					<stop  offset="0" style="stop-color:#FFFFFF"/>
					<stop  offset="0.1114" style="stop-color:#F5F5F8"/>
					<stop  offset="0.299" style="stop-color:#DBDBE5"/>
					<stop  offset="0.5396" style="stop-color:#B0B1C6"/>
					<stop  offset="0.8209" style="stop-color:#76789C"/>
					<stop  offset="1" style="stop-color:#4D4F7E"/>
				</linearGradient>
				<path fill="url(#SVGID_18_)" d="M201.43,380.005c0,0.013,0.941-0.012,0.941,0c0.6,4.066,5.012,11.845,5.78,15.879
					c6.417,33.894,6.924,54.587,7.5,62.743c0.606,8.706-1.652,10.724,2.426,25.86c3.082,11.436,3.478,23.385,4.035,35.285
					c-1.597-22.531-8.168-31.065-10.501-38.534c-2.519-8.057,1.782-13.546,2.915-28.868c1.126-15.322-10.724-49.964-13.763-58.2
					c-2.475-6.721-7.265-12.481-9.981-12.815C195.712,380.63,200.167,380.086,201.43,380.005z"/>
				<path d="M222.396,525.354L222.396,525.354c0,0,0,0,0-0.007C222.396,525.354,222.396,525.354,222.396,525.354z"/>
			</g>
			<linearGradient id="SVGID_19_" gradientUnits="userSpaceOnUse" x1="216.1792" y1="287.1182" x2="216.1792" y2="386.5518">
				<stop  offset="0" style="stop-color:#D6E3FA"/>
				<stop  offset="0.8721" style="stop-color:#A8BEE6"/>
				<stop  offset="1" style="stop-color:#A1B8E3"/>
			</linearGradient>
			<path fill="url(#SVGID_19_)" d="M207.816,296.94c0,0,34.116,36.474,29.629,50.305c-4.48,13.83-27.148-2.859-39.264-25.385
				C186.058,299.329,207.816,296.94,207.816,296.94z"/>
			<linearGradient id="SVGID_20_" gradientUnits="userSpaceOnUse" x1="238.7222" y1="337.1826" x2="200.7018" y2="323.6915">
				<stop  offset="0" style="stop-color:#FFFFFF"/>
				<stop  offset="0.1208" style="stop-color:#FAFBFC"/>
				<stop  offset="0.27" style="stop-color:#EBEFF5"/>
				<stop  offset="0.434" style="stop-color:#D1DAE9"/>
				<stop  offset="0.6088" style="stop-color:#AEBED8"/>
				<stop  offset="0.7922" style="stop-color:#819AC3"/>
				<stop  offset="0.98" style="stop-color:#4B6EA9"/>
				<stop  offset="1" style="stop-color:#4569A6"/>
			</linearGradient>
			<path opacity="0.36" fill="url(#SVGID_20_)" d="M240.626,345.246c0,0.056,0,0.056,0,0.105c-2.55,5.816-6.578,7.599-11.628,6.732
				c-1.126-0.204-2.197-0.612-3.162-1.12c-9.134-4.388-20.563-15.916-27.649-29.128c-1.894-3.472-2.964-6.479-3.422-9.084
				l7.803-6.888c0,0-1.015,13.62,18.113,27.958C225.78,337.696,232.259,341.576,240.626,345.246z"/>
			<g>
				<linearGradient id="SVGID_21_" gradientUnits="userSpaceOnUse" x1="142.3687" y1="287.1201" x2="142.3687" y2="386.5523">
					<stop  offset="0" style="stop-color:#D6E3FA"/>
					<stop  offset="0.8721" style="stop-color:#A8BEE6"/>
					<stop  offset="1" style="stop-color:#A1B8E3"/>
				</linearGradient>
				<path fill="url(#SVGID_21_)" d="M145.983,296.545c0,0-28.113,41.275-21.554,54.258c6.553,12.977,26.387-6.992,34.902-31.12
					C167.846,295.561,145.983,296.545,145.983,296.545z"/>
				<linearGradient id="SVGID_22_" gradientUnits="userSpaceOnUse" x1="116.896" y1="337.7197" x2="154.9133" y2="325.6605">
					<stop  offset="0" style="stop-color:#FFFFFF"/>
					<stop  offset="0.1208" style="stop-color:#FAFBFC"/>
					<stop  offset="0.27" style="stop-color:#EBEFF5"/>
					<stop  offset="0.434" style="stop-color:#D1DAE9"/>
					<stop  offset="0.6088" style="stop-color:#AEBED8"/>
					<stop  offset="0.7922" style="stop-color:#819AC3"/>
					<stop  offset="0.98" style="stop-color:#4B6EA9"/>
					<stop  offset="1" style="stop-color:#4569A6"/>
				</linearGradient>
				<path opacity="0.36" fill="url(#SVGID_22_)" d="M152.524,304.583c0,0,7.618,20.1-28.924,43.534
					c0.161,0.99,0.427,1.888,0.829,2.686c6.553,12.977,26.387-6.992,34.902-31.12c1.324-3.757,1.912-6.9,1.961-9.536
					L152.524,304.583z"/>
			</g>
			<g>
				<g>
					<g>
						<linearGradient id="SVGID_23_" gradientUnits="userSpaceOnUse" x1="187.5591" y1="264.4248" x2="187.5591" y2="319.0173">
							<stop  offset="0" style="stop-color:#59A3F2"/>
							<stop  offset="0.6706" style="stop-color:#2B75DB"/>
							<stop  offset="1" style="stop-color:#135DCF"/>
						</linearGradient>
						<path fill="url(#SVGID_23_)" d="M184.499,269.842c0,2.915,1.367,5.285,3.057,5.285s3.063-2.37,3.063-5.285
							c0-2.92-1.374-5.291-3.063-5.291S184.499,266.922,184.499,269.842z"/>
						<linearGradient id="SVGID_24_" gradientUnits="userSpaceOnUse" x1="166.2866" y1="264.4248" x2="166.2866" y2="319.0173">
							<stop  offset="0" style="stop-color:#59A3F2"/>
							<stop  offset="0.6706" style="stop-color:#2B75DB"/>
							<stop  offset="1" style="stop-color:#135DCF"/>
						</linearGradient>
						<path fill="url(#SVGID_24_)" d="M163.23,269.842c0,2.915,1.368,5.285,3.057,5.285c1.689,0,3.057-2.37,3.057-5.285
							c0-2.92-1.368-5.291-3.057-5.291C164.598,264.552,163.23,266.922,163.23,269.842z"/>
						<path fill="#EFEFEF" d="M185.217,284.144c0,0-1.176-1.628-5.712-1.572c-4.53,0.063-10.266-0.983-11.646,1.572
							c-1.374,2.562-1.089,6.918,4.418,6.46C177.785,290.146,186.881,286.835,185.217,284.144z"/>
						<linearGradient id="SVGID_25_" gradientUnits="userSpaceOnUse" x1="177.7573" y1="264.4287" x2="177.7573" y2="319.0038">
							<stop  offset="0" style="stop-color:#59A3F2"/>
							<stop  offset="0.6706" style="stop-color:#2B75DB"/>
							<stop  offset="1" style="stop-color:#135DCF"/>
						</linearGradient>
						<path fill="url(#SVGID_25_)" d="M166.856,299.484c-3.02-3.596-4.462-7.687-3.131-8.974c0.662-0.327,4.35-0.488,5.6-4.084
							c0.39-4.926,0.198-10.105-1.083-14.523c1.374-2.927,5.242-2.506,8.756-1.374c3.509-1.132,7.376-1.553,8.75,1.374
							c-1.207,4.177-1.442,9.035-1.139,13.707c0.192,1.188,0.495,2.586,1.231,3.589c1.442,1.968,5.891,1.968,5.359,2.11
							c4.852,3.911-7.593,27.958-16.888,27.958c-4.363,0-4.66-16.485-7.382-19.69c-0.031-0.019-0.056-0.031-0.087-0.044
							C166.844,299.515,166.85,299.496,166.856,299.484z"/>
						<g>
							<linearGradient id="SVGID_26_" gradientUnits="userSpaceOnUse" x1="176.9092" y1="264.4268" x2="176.9092" y2="319.0021">
								<stop  offset="0" style="stop-color:#59A3F2"/>
								<stop  offset="0.6706" style="stop-color:#2B75DB"/>
								<stop  offset="1" style="stop-color:#135DCF"/>
							</linearGradient>
							<path fill="url(#SVGID_26_)" d="M165.093,268.58c0,8.596,5.291,15.563,11.813,15.563c6.529,0,11.82-6.968,11.82-15.563
								c0-8.589-5.291-15.56-11.82-15.56C170.383,253.02,165.093,259.991,165.093,268.58z"/>
						</g>
						<linearGradient id="SVGID_27_" gradientUnits="userSpaceOnUse" x1="182.3682" y1="226.8442" x2="175.4181" y2="277.539">
							<stop  offset="0" style="stop-color:#255EB0"/>
							<stop  offset="0.5709" style="stop-color:#163F82"/>
							<stop  offset="1" style="stop-color:#09265D"/>
						</linearGradient>
						<path fill="url(#SVGID_27_)" d="M193.36,252.979c-0.52-2.005-2.03-3.323-4.381-3.806c-1.194-0.254-2.389-0.111-3.558,0.025
							c-0.452,0.049-0.897,0.099-1.343,0.13c-2.531,0.142-4.14-1.318-5.854-2.909c-0.495-0.458-1.009-0.934-1.547-1.374
							c-1.838-1.485-3.979-2.259-6.052-2.098c-2.896,0.18-6.071,2.624-6.17,5.978c-0.012,0.399,0.148,0.746,0.217,1.12
							c-1.869,4.22-1.801,10.328,0.433,14.827c1.757,8.954,5.223,15.409,5.223,15.409s8.521,3.063,12.909-0.118
							c4.319-6.77,5.136-15.291,5.136-15.291v-0.006l0.21,0.248C191.219,262.85,194.4,256.996,193.36,252.979z M165.124,249.118
							c-0.006-0.059-0.037-0.108-0.037-0.167c0.093-3.014,2.958-5.21,5.582-5.372c0.136-0.006,0.279-0.012,0.415-0.012
							c1.758,0,3.626,0.706,5.198,1.974c0.52,0.42,1.027,0.891,1.516,1.343c0.78,0.724,1.572,1.448,2.463,2.021
							c-0.891-0.282-1.751-0.638-2.5-1.176C171.615,243.341,167.345,245.093,165.124,249.118z M188.726,252.33
							c-1.046-1.376-2.612-1.968-4.313-2.398c0.359-0.031,0.718-0.065,1.077-0.108c1.176-0.124,2.277-0.248,3.36-0.031
							c2.129,0.439,3.435,1.566,3.898,3.348c0.922,3.57-1.732,8.688-4.152,11.064C190.347,259.706,190.761,255.021,188.726,252.33z"
							/>
					</g>
					<linearGradient id="SVGID_28_" gradientUnits="userSpaceOnUse" x1="176.6333" y1="287.1143" x2="176.6333" y2="386.5518">
						<stop  offset="0" style="stop-color:#D6E3FA"/>
						<stop  offset="0.8721" style="stop-color:#A8BEE6"/>
						<stop  offset="1" style="stop-color:#A1B8E3"/>
					</linearGradient>
					<path fill="url(#SVGID_28_)" d="M163.936,290.078c-4.548-0.013-15.669,2.568-18.893,7.945
						c-1.522,2.55-0.829,16.393,1.207,29.246c6.776,9.01,5.582,35.396,5.328,41.238c-0.439,10.235-7.983,13.465-3.992,17.772
						c4.92,5.31,12.952,5.581,19.487,5.34c7.964-0.29,16.423,0.322,24.289-0.748c4.159-0.569,10.464-1.194,13.614-4.592
						c3.991-4.308-3.552-7.537-3.998-17.772c-0.241-5.619,1.683-26.776,5.904-40.435c0.173-0.551,0.315-1.089,0.415-1.664
						c2.302-12.816,2.147-26.684,0.619-29.233c-3.849-4.647-18.144-7.209-21.151-6.597
						C186.764,290.579,164.591,290.084,163.936,290.078z"/>
					<linearGradient id="SVGID_29_" gradientUnits="userSpaceOnUse" x1="177.4321" y1="283.1895" x2="176.2054" y2="294.2296">
						<stop  offset="0" style="stop-color:#DEE5F6"/>
						<stop  offset="0.7637" style="stop-color:#B0C3E8"/>
						<stop  offset="1" style="stop-color:#A1B8E3"/>
					</linearGradient>
					<path fill="url(#SVGID_29_)" d="M185.217,284.144c0,0-2.624,3.02-8.583,3.02c-5.959,0-8.775-3.02-8.775-3.02
						s-3.268,3.193-3.923,5.935c2.741,3.242,15.768,8.335,25.409,0.47C188.726,285.783,185.217,284.144,185.217,284.144z"/>
				</g>
			</g>
		</g>
	</g>
	<g>
		<g>
			<g>
				<path fill="#FF906A" d="M472.672,365.927c0,0-7.104,3.726-9.313,2.513s-3.893-9.53,4.896-9.307
					C474.237,362.351,472.672,365.927,472.672,365.927z"/>
				<path fill="#FF906A" d="M471.806,365.791c-1.986-0.582-3.162-2.655-3.757-5.198c-0.594-2.543-3.168-1.56-3.806-3.478
					c-0.637-1.925,7.854,0.495,9.011,0.662c1.157,0.16,3.787,1.584,3.787,1.584S476.088,367.047,471.806,365.791z"/>
				<linearGradient id="SVGID_30_" gradientUnits="userSpaceOnUse" x1="475.9336" y1="337.4639" x2="542.9807" y2="333.9889">
					<stop  offset="0" style="stop-color:#59A3F2"/>
					<stop  offset="0.6706" style="stop-color:#2B75DB"/>
					<stop  offset="1" style="stop-color:#135DCF"/>
				</linearGradient>
				<path fill="url(#SVGID_30_)" d="M555.093,312.059c-2.253-10.315-18.478-10.972-19.635-1.751
					c-0.812,6.658-14.536,32.42-15.224,32.915c-0.656,0.47-0.625,2.005-0.625,2.005s-1.844-0.378-1.72,1.404
					c-1.096,0.031-28.85,6.535-40.855,9.375c-3.348,0.786-5.47,1.288-5.47,1.288c3.218,3.187,2.623,8.403,0.123,9.313
					c6.188,0.842,48.107,0.217,57.551-5.062c8.188-4.567,22.414-35.861,25.384-43.708
					C555.31,315.994,555.526,313.965,555.093,312.059z"/>
				<linearGradient id="SVGID_31_" gradientUnits="userSpaceOnUse" x1="478.6602" y1="337.2559" x2="536.1028" y2="334.5984">
					<stop  offset="0" style="stop-color:#CCDCF6"/>
					<stop  offset="1" style="stop-color:#A1B8E3"/>
				</linearGradient>
				<path fill="url(#SVGID_31_)" d="M555.099,312.059c-1.009-4.616-4.808-7.283-8.806-8.014c1.077,1.207,1.906,2.686,2.302,4.474
					c0.421,1.925,0.205,3.937-0.482,5.78c-2.951,7.84-17.197,39.152-25.365,43.707c-6.059,3.379-25.489,4.852-40.273,5.254
					c-6.386,0.087-5.439-7.246-5.439-7.246c-3.348,0.779-5.47,1.281-5.47,1.281c1.782,1.77,2.363,4.146,2.129,6.082l0,0
					c-0.1,0.768-0.322,1.467-0.656,2.024c-0.019,0.037-0.05,0.062-0.074,0.099c-0.148,0.235-0.315,0.452-0.514,0.631
					c-0.1,0.087-0.229,0.143-0.347,0.217c-0.136,0.087-0.266,0.198-0.421,0.254c0.006,0,0.013,0,0.019,0
					c-0.006,0-0.006,0.006-0.013,0.006h0.068c6.393,0.836,48.083,0.186,57.495-5.068c8.168-4.554,22.413-35.866,25.365-43.707
					C555.31,315.988,555.52,313.983,555.099,312.059z"/>
			</g>
			<linearGradient id="SVGID_32_" gradientUnits="userSpaceOnUse" x1="585.2979" y1="533.3271" x2="598.5839" y2="543.1384">
				<stop  offset="0" style="stop-color:#255EB0"/>
				<stop  offset="0.5709" style="stop-color:#163F82"/>
				<stop  offset="1" style="stop-color:#09265D"/>
			</linearGradient>
			<path fill="url(#SVGID_32_)" d="M597.073,524.19c0,0,7.117,0.378,11.765,7.303c-3.225,4.839-7.779,7.686-7.779,7.686
				s-1.708-2.253-6.831,5.408c-3.2,4.579-4.221,4.382-7.16,5.31c-1.33,0.78-6.237,0.922-6.454,0.427
				c-0.211-0.501-0.984-3.836,0.798-5.043c0.842-0.575,2.42,0.173,4.054-1.498c7.487-9.461,5.254-15.111,5.254-15.111
				L597.073,524.19z"/>
			<linearGradient id="SVGID_33_" gradientUnits="userSpaceOnUse" x1="525.8594" y1="536.3975" x2="527.4947" y2="548.6623">
				<stop  offset="0" style="stop-color:#255EB0"/>
				<stop  offset="0.5709" style="stop-color:#163F82"/>
				<stop  offset="1" style="stop-color:#09265D"/>
			</linearGradient>
			<path fill="url(#SVGID_33_)" d="M539.27,535.385c0,0,4.938,5.131,3.607,13.367c-5.656,1.337-10.928,0.303-10.928,0.303
				s-1.882-2.444-6.684-0.358c-5.464,1.157-13.979-1.287-14.104-1.813c-0.358-1.541-0.525-5.805,5.972-4.561
				c11.709-1.547,14.432-8.001,14.432-8.001L539.27,535.385z"/>
			<linearGradient id="SVGID_34_" gradientUnits="userSpaceOnUse" x1="519.4258" y1="463.2363" x2="546.6102" y2="469.1638">
				<stop  offset="0" style="stop-color:#BFD0ED"/>
				<stop  offset="0.1058" style="stop-color:#BACCEB"/>
				<stop  offset="0.6307" style="stop-color:#A8BDE5"/>
				<stop  offset="1" style="stop-color:#A1B8E3"/>
			</linearGradient>
			<path fill="url(#SVGID_34_)" d="M574.97,407.308c0,0-1.12,2.878-3.435,6.597c-1.906,3.125-4.629,6.813-8.256,9.907
				c-7.753,6.727-8.125,14.821-10.848,25.013c-1.312,4.846-3.156,10.155-6.627,16.034c3.849,12.877-3.937,63.862-1.782,73.176
				c-5.812,3.904-14.252,0.062-15.001-0.749c-1.819-3.162-8.286-69.079-7.382-78.615c0.755-7.908,6.974-31.604,12.977-46.047v-0.03
				c2.277-5.502,4.499-9.629,6.404-11.065c0.285-0.223,0.595-0.408,0.94-0.594C549.653,396.49,569.753,398.465,574.97,407.308z"/>
			<linearGradient id="SVGID_35_" gradientUnits="userSpaceOnUse" x1="545.1064" y1="438.6123" x2="554.3049" y2="590.6913">
				<stop  offset="0" style="stop-color:#FFFFFF"/>
				<stop  offset="0.5075" style="stop-color:#D1DCF1"/>
				<stop  offset="1" style="stop-color:#A1B8E3"/>
			</linearGradient>
			<path fill="url(#SVGID_35_)" d="M551.795,420.26c0,0-10.478,40.378-13.874,46.121c2.098,13.904,0.773,55.05,3.422,72.903
				c0.935-0.272,1.844-0.675,2.691-1.244c-2.178-9.308,5.619-60.316,1.789-73.182c6.436-10.904,7.296-19.933,9.442-27.55
				L551.795,420.26z"/>
			<linearGradient id="SVGID_36_" gradientUnits="userSpaceOnUse" x1="572.8564" y1="438.6855" x2="532.3829" y2="404.3443">
				<stop  offset="0" style="stop-color:#FFFFFF"/>
				<stop  offset="0.5075" style="stop-color:#D1DCF1"/>
				<stop  offset="1" style="stop-color:#A1B8E3"/>
			</linearGradient>
			<path fill="url(#SVGID_36_)" d="M571.535,413.904c-1.906,3.125-4.629,6.813-8.256,9.907c-7.753,6.727-8.125,14.821-10.848,25.013
				c-1.937-7.476-3.904-19.567-3.904-19.567c-10.606-11.132-13.911-16.634-13.911-16.634v-0.03
				c2.277-5.502,4.499-9.629,6.404-11.065c0.285-0.223,0.595-0.408,0.94-0.594l28.979,8.657L571.535,413.904z"/>
			<linearGradient id="SVGID_37_" gradientUnits="userSpaceOnUse" x1="559.2754" y1="471.0674" x2="586.461" y2="463.0956">
				<stop  offset="0" style="stop-color:#BFD0ED"/>
				<stop  offset="0.1058" style="stop-color:#BACCEB"/>
				<stop  offset="0.6307" style="stop-color:#A8BDE5"/>
				<stop  offset="1" style="stop-color:#A1B8E3"/>
			</linearGradient>
			<path fill="url(#SVGID_37_)" d="M581.943,468.144c2.593-18.478,0.063-28.416,4.629-38.329c0.278-0.595,0.526-1.157,0.749-1.715
				c4.028-10.006,2.939-18.57,1.497-23.67c-0.903-3.155-1.937-5-1.937-5c-8.627-6.343-29.228,0.563-33.51,8.032
				c0,0.031-0.03,0.031-0.03,0.068c-1.003,1.813-1.473,5.656-1.535,10.625v0.031c-0.031,1.003-0.031,2.029-0.031,3.125
				c0.217,16.102,3.564,40.422,5.973,47.859c2.908,9.128,31.163,58.931,34.072,61.084c3.348,1.405,11.132-1.844,12.977-4.876
				C598.701,506.622,592.259,482.989,581.943,468.144z"/>
			<linearGradient id="SVGID_38_" gradientUnits="userSpaceOnUse" x1="593.2148" y1="431.4492" x2="584.3231" y2="613.5792">
				<stop  offset="0" style="stop-color:#FFFFFF"/>
				<stop  offset="0.5075" style="stop-color:#D1DCF1"/>
				<stop  offset="1" style="stop-color:#A1B8E3"/>
			</linearGradient>
			<path fill="url(#SVGID_38_)" d="M578.286,436.491c-3.682,12.222-1.925,28.256-1.021,33.342
				c7.729,8.788,21.318,45.181,24.344,58.324c1.436-0.848,2.6-1.825,3.175-2.772c-6.096-18.756-12.513-42.396-22.828-57.241
				c2.599-18.465,0.056-28.409,4.61-38.323c3.91-8.515,3.991-16.107,3.1-21.572l-8.144,4.82
				C581.522,413.068,581.968,424.282,578.286,436.491z"/>
			<linearGradient id="SVGID_39_" gradientUnits="userSpaceOnUse" x1="550.6982" y1="287.1973" x2="536.5941" y2="294.7093">
				<stop  offset="0" style="stop-color:#CCDCF6"/>
				<stop  offset="1" style="stop-color:#A1B8E3"/>
			</linearGradient>
			<path fill="url(#SVGID_39_)" d="M555.31,299.336c-6.313,8.719-16.194,8.348-16.194,8.348s-0.063-0.879-0.155-2.346
				c-0.217-3.379-0.687-9.846-1.343-15.601c-0.408-3.626-0.909-6.968-1.441-9.035c-1.782-6.72,13.44-3.564,13.44-3.564
				S550.557,291.705,555.31,299.336z"/>
			<linearGradient id="SVGID_40_" gradientUnits="userSpaceOnUse" x1="614.1074" y1="422.9736" x2="533.7762" y2="407.3367">
				<stop  offset="0" style="stop-color:#FFFFFF"/>
				<stop  offset="0.5075" style="stop-color:#D1DCF1"/>
				<stop  offset="1" style="stop-color:#A1B8E3"/>
			</linearGradient>
			<path fill="url(#SVGID_40_)" d="M587.321,428.1c-23.039,2.277-33.825-5.445-35.546-6.788c0-1.096,0-2.122,0.031-3.125v-0.031
				c0.063-4.969,0.532-8.812,1.535-10.625l4.529-2.19l19.852-1.999l11.096,1.089C590.261,409.529,591.35,418.094,587.321,428.1z"/>
			<linearGradient id="SVGID_41_" gradientUnits="userSpaceOnUse" x1="533.8516" y1="302.7217" x2="545.3501" y2="292.9096">
				<stop  offset="0" style="stop-color:#CCDCF6"/>
				<stop  offset="1" style="stop-color:#A1B8E3"/>
			</linearGradient>
			<path fill="url(#SVGID_41_)" d="M547.617,288.71c0,0-0.946,2.859-4.777,9.06c-1.349,2.185-1.07,6.003-0.606,7.568h-3.273
				c-0.217-3.379-0.687-9.846-1.343-15.601l9.66-5.687L547.617,288.71z"/>
			<linearGradient id="SVGID_42_" gradientUnits="userSpaceOnUse" x1="530.2969" y1="352.1592" x2="591.6229" y2="358.5984">
				<stop  offset="0" style="stop-color:#59A3F2"/>
				<stop  offset="0.6706" style="stop-color:#2B75DB"/>
				<stop  offset="1" style="stop-color:#135DCF"/>
			</linearGradient>
			<path fill="url(#SVGID_42_)" d="M572.364,310.017c-8.676-14.71-21.381-19.666-21.381-19.666c0.013,0.043,0.025,0.093,0.044,0.148
				c2.203,7.116-3.664,14.158-11.071,13.354c-1.577-0.173-2.556-0.501-2.556-0.501s-5.451,78.479-2.487,107.83
				c5.99,6.738,36.355,13.806,55.663,1.064C589.697,406.781,581.04,324.732,572.364,310.017z"/>
			<g>
				<linearGradient id="SVGID_43_" gradientUnits="userSpaceOnUse" x1="524.1826" y1="280.6426" x2="551.1758" y2="280.6426">
					<stop  offset="0" style="stop-color:#CCDCF6"/>
					<stop  offset="1" style="stop-color:#A1B8E3"/>
				</linearGradient>
				<path fill="url(#SVGID_43_)" d="M539.368,263.883c-2.66-1.374-5.408-1.59-7.847-1.343c-4.004,0.47-7.035,2.252-7.035,2.252
					s-0.031,2.16-0.217,5.093c-0.254,4.351-0.786,10.316-1.875,13.571c2.654,2.5,5.501,0.34,5.501,0.34s-2.599,9.319-1.974,12.444
					c0.594,3.125,14.258,5.972,21.448-7.63C551.404,275.857,546.398,267.578,539.368,263.883z"/>
				<linearGradient id="SVGID_44_" gradientUnits="userSpaceOnUse" x1="515.3691" y1="269.5767" x2="537.6447" y2="264.0588">
					<stop  offset="0" style="stop-color:#CCDCF6"/>
					<stop  offset="1" style="stop-color:#A1B8E3"/>
				</linearGradient>
				<path fill="url(#SVGID_44_)" d="M539.709,266.73c0,0-2.364-1.578-7.723,0.687c-3.36,1.423-5.749,2.191-7.717,2.469
					c0.186-2.933,0.217-5.093,0.217-5.093s3.031-1.782,7.035-2.252l5.625,0.687L539.709,266.73z"/>
				<linearGradient id="SVGID_45_" gradientUnits="userSpaceOnUse" x1="523.207" y1="275.0576" x2="573.8062" y2="275.0576">
					<stop  offset="0" style="stop-color:#255EB0"/>
					<stop  offset="0.5709" style="stop-color:#163F82"/>
					<stop  offset="1" style="stop-color:#09265D"/>
				</linearGradient>
				<path fill="url(#SVGID_45_)" d="M521.36,266.538c3.008,1.349,11.393-2.636,16.962-0.532c6.442,2.03,8.052,20.408-0.798,22.185
					c-1.739,0.353-3.472-0.408-4.604-1.77c-1.646-1.986-5.012-2.624-5.012-2.624c-0.526,0.532-3.014,10.73-2.296,12.463
					c0.712,1.733,3.694,3.218,7.611,2.815c10.167-1.324,14.047-8.385,15.521-13.372c0.401,1.058,1.139,2.481,2.426,3.564
					c4.839-0.848,5.978-4.029,5.978-4.029s-2.494-1.237-3.596-2.914c0,0,1.368,1.207,3.521,1.701
					c-1.522-1.033-4.443-3.688-6.114-9.214c0,0,5.26-6.176,1.844-12.407c-3.415-6.231-8.694-3.469-8.694-3.469
					s-7.159-10.006-17.784-7.583C515.698,253.775,518.354,265.183,521.36,266.538z"/>
				<linearGradient id="SVGID_46_" gradientUnits="userSpaceOnUse" x1="523.1953" y1="262.7832" x2="573.8157" y2="262.7832">
					<stop  offset="0" style="stop-color:#255EB0"/>
					<stop  offset="0.5709" style="stop-color:#163F82"/>
					<stop  offset="1" style="stop-color:#09265D"/>
				</linearGradient>
				<path fill="url(#SVGID_46_)" d="M548.576,258.577c0.558,0.087,5.558,1.062,6.832,8.37l-0.074,0.043c0,0-2.11-5.563-5.563-5.786
					C546.318,260.981,548.576,258.577,548.576,258.577z"/>
			</g>
			<linearGradient id="SVGID_47_" gradientUnits="userSpaceOnUse" x1="635.8516" y1="567.3291" x2="547.2397" y2="406.3558">
				<stop  offset="0" style="stop-color:#FFFFFF"/>
				<stop  offset="0.5075" style="stop-color:#D1DCF1"/>
				<stop  offset="1" style="stop-color:#A1B8E3"/>
			</linearGradient>
			<path fill="url(#SVGID_47_)" d="M570.557,469.599c-3.391-15.174-0.024-50.181,0.013-50.533l-0.946-0.087
				c-0.031,0.353-3.416,35.502,0.043,50.923c0.223,0.482,22.438,48.349,28.732,59.005l0.816-0.482
				C592.946,517.805,570.755,469.988,570.557,469.599z"/>
			<linearGradient id="SVGID_48_" gradientUnits="userSpaceOnUse" x1="520.75" y1="368.2354" x2="580.8439" y2="339.8236">
				<stop  offset="0" style="stop-color:#CCDCF6"/>
				<stop  offset="1" style="stop-color:#A1B8E3"/>
			</linearGradient>
			<path fill="url(#SVGID_48_)" d="M571.238,316.452c0,0-2.407,50.378-14.066,59.754c-7.036,5.644-16.603,10.581-23.063,13.626
				c-0.062-5.068-0.062-10.074-0.062-14.134c14.697-21.287,18.688-36.498,19.579-45.366L571.238,316.452z"/>
		</g>
		<g>
			
				<linearGradient id="SVGID_49_" gradientUnits="userSpaceOnUse" x1="-866.2954" y1="374.417" x2="-931.786" y2="374.417" gradientTransform="matrix(-1 0 0 1 -405.1943 0)">
				<stop  offset="0" style="stop-color:#F3D19F"/>
				<stop  offset="0.8422" style="stop-color:#EEA871"/>
				<stop  offset="1" style="stop-color:#EDA068"/>
			</linearGradient>
			<rect x="466.465" y="355.611" fill="url(#SVGID_49_)" width="49.005" height="37.612"/>
			
				<linearGradient id="SVGID_50_" gradientUnits="userSpaceOnUse" x1="-822.3945" y1="374.417" x2="-866.9818" y2="374.417" gradientTransform="matrix(-1 0 0 1 -405.1943 0)">
				<stop  offset="0" style="stop-color:#F3D19F"/>
				<stop  offset="0.8422" style="stop-color:#EEA871"/>
				<stop  offset="1" style="stop-color:#EDA068"/>
			</linearGradient>
			<rect x="443.835" y="355.611" fill="url(#SVGID_50_)" width="22.63" height="37.612"/>
			
				<linearGradient id="SVGID_51_" gradientUnits="userSpaceOnUse" x1="-885.3911" y1="351.6553" x2="-883.1534" y2="316.1309" gradientTransform="matrix(-1 0 0 1 -405.1943 0)">
				<stop  offset="0" style="stop-color:#F3D19F"/>
				<stop  offset="0.8422" style="stop-color:#EEA871"/>
				<stop  offset="1" style="stop-color:#EDA068"/>
			</linearGradient>
			<path fill="url(#SVGID_51_)" d="M443.835,355.611l-11.318-12.661h22.63l11.318,12.661H443.835z M515.464,355.611l11.317-12.661
				h-22.636l-11.313,12.661H515.464z"/>
		</g>
		<g>
			<path fill="#FF906A" d="M494.318,386.744c0,0-9.4,1.658-8.354,3.23c1.046,1.578,5,0.644,3.937,2.283
				c-1.064,1.64-7.123,0.836-8.72,0.328c-1.597-0.501-3.552,5.501,3.348,6.695c6.894,1.194,12.891-6.764,12.878-7.537
				C497.4,390.971,494.318,386.744,494.318,386.744z"/>
			<linearGradient id="SVGID_52_" gradientUnits="userSpaceOnUse" x1="530.5098" y1="350.1768" x2="591.8295" y2="356.6153">
				<stop  offset="0" style="stop-color:#59A3F2"/>
				<stop  offset="0.6706" style="stop-color:#2B75DB"/>
				<stop  offset="1" style="stop-color:#135DCF"/>
			</linearGradient>
			<path fill="url(#SVGID_52_)" d="M571.213,316.465c-1.393,6.968-13.682,48.088-23.88,53.887l0.544-0.452
				c-11.565,8.336-48.088,24.463-53.961,25.83c1.739-0.204,0.922-6.782-3.224-8.596l45.997-32.03l-0.168-0.148
				c0,0,0.149-2.19,1.485-2.871c0.755-0.39,10.886-33.651,13.095-39.982c1.621-4.529,5.272-7.283,9.06-7.871
				c4.214-0.649,8.589,1.324,10.612,6.479C571.504,312.529,571.603,314.534,571.213,316.465z"/>
			<linearGradient id="SVGID_53_" gradientUnits="userSpaceOnUse" x1="489.541" y1="376.3242" x2="555.7664" y2="327.4728">
				<stop  offset="0" style="stop-color:#FFFFFF"/>
				<stop  offset="0.1138" style="stop-color:#E9E9E9"/>
				<stop  offset="0.3504" style="stop-color:#B1B1B1"/>
				<stop  offset="0.6861" style="stop-color:#595959"/>
				<stop  offset="1" style="stop-color:#000000"/>
			</linearGradient>
			<path opacity="0.3" fill="url(#SVGID_53_)" d="M545.798,355.723c0,0-39.128,33.026-55.105,31.411l45.997-32.03l-0.168-0.148
				c0,0,0.149-2.19,1.485-2.871c0.755-0.39,10.886-33.651,13.095-39.982c1.621-4.529,5.272-7.283,9.06-7.871
				C559.586,310.438,555.978,344.671,545.798,355.723z"/>
		</g>
	</g>
	<g>
		<linearGradient id="SVGID_54_" gradientUnits="userSpaceOnUse" x1="407.0469" y1="266.916" x2="252.3457" y2="377.7941">
			<stop  offset="0" style="stop-color:#59A3F2"/>
			<stop  offset="0.6706" style="stop-color:#2B75DB"/>
			<stop  offset="1" style="stop-color:#135DCF"/>
		</linearGradient>
		<path fill="url(#SVGID_54_)" d="M404.144,263.487H277.811c-2.234,0-4.041,1.807-4.041,4.041v93.491
			c0,2.228,1.807,4.035,4.041,4.035h126.333c2.228,0,4.041-1.808,4.041-4.035v-93.491
			C408.185,265.294,406.371,263.487,404.144,263.487z"/>
		<defs>
			<filter id="Adobe_OpacityMaskFilter_2_" filterUnits="userSpaceOnUse" x="287.297" y="285.227" width="109.538" height="70.676">
				<feFlood  style="flood-color:white;flood-opacity:1" result="back"/>
				<feBlend  in="SourceGraphic" in2="back" mode="normal"/>
			</filter>
		</defs>
		<mask maskUnits="userSpaceOnUse" x="287.297" y="285.227" width="109.538" height="70.676" id="SVGID_55_">
			<g filter="url(#Adobe_OpacityMaskFilter_2_)">
				<defs>
					
						<filter id="Adobe_OpacityMaskFilter_3_" filterUnits="userSpaceOnUse" x="287.297" y="285.227" width="109.538" height="70.676">
						<feFlood  style="flood-color:white;flood-opacity:1" result="back"/>
						<feBlend  in="SourceGraphic" in2="back" mode="normal"/>
					</filter>
				</defs>
				<mask maskUnits="userSpaceOnUse" x="287.297" y="285.227" width="109.538" height="70.676" id="SVGID_55_">
					<g filter="url(#Adobe_OpacityMaskFilter_3_)">
					</g>
				</mask>
				<linearGradient id="SVGID_56_" gradientUnits="userSpaceOnUse" x1="342.0659" y1="260.3198" x2="342.0659" y2="365.5271">
					<stop  offset="0.0014" style="stop-color:#FFFFFF"/>
					<stop  offset="0.0345" style="stop-color:#F5F5F5"/>
					<stop  offset="0.3979" style="stop-color:#8E8E8E"/>
					<stop  offset="0.6902" style="stop-color:#414141"/>
					<stop  offset="0.8971" style="stop-color:#121212"/>
					<stop  offset="1" style="stop-color:#000000"/>
				</linearGradient>
				<path mask="url(#SVGID_55_)" fill="url(#SVGID_56_)" d="M300.095,355.902H289.6c-1.275,0-2.302-1.033-2.302-2.303v-31.448
					c0-1.274,1.027-2.302,2.302-2.302h10.495c1.269,0,2.296,1.027,2.296,2.302V353.6
					C302.391,354.869,301.363,355.902,300.095,355.902z M323.703,306.013h-10.495c-1.269,0-2.302,1.033-2.302,2.302V353.6
					c0,1.27,1.033,2.303,2.302,2.303h10.495c1.269,0,2.302-1.033,2.302-2.303v-45.285
					C326.005,307.046,324.972,306.013,323.703,306.013z M347.311,285.227h-10.489c-1.275,0-2.302,1.033-2.302,2.302V353.6
					c0,1.27,1.027,2.303,2.302,2.303h10.489c1.274,0,2.302-1.033,2.302-2.303v-66.071
					C349.613,286.26,348.585,285.227,347.311,285.227z M370.925,309.243H360.43c-1.269,0-2.302,1.033-2.302,2.302V353.6
					c0,1.27,1.033,2.303,2.302,2.303h10.496c1.269,0,2.302-1.033,2.302-2.303v-42.055
					C373.227,310.276,372.194,309.243,370.925,309.243z M394.533,290.332h-10.489c-1.274,0-2.302,1.033-2.302,2.302V353.6
					c0,1.27,1.027,2.303,2.302,2.303h10.489c1.274,0,2.302-1.033,2.302-2.303v-60.966
					C396.835,291.365,395.808,290.332,394.533,290.332z"/>
			</g>
		</mask>
		<linearGradient id="SVGID_57_" gradientUnits="userSpaceOnUse" x1="342.0659" y1="260.3198" x2="342.0659" y2="365.5271">
			<stop  offset="0.0014" style="stop-color:#FFFFFF"/>
			<stop  offset="1" style="stop-color:#FFFFFF"/>
		</linearGradient>
		<path fill="url(#SVGID_57_)" d="M300.095,355.902H289.6c-1.275,0-2.302-1.033-2.302-2.303v-31.448
			c0-1.274,1.027-2.302,2.302-2.302h10.495c1.269,0,2.296,1.027,2.296,2.302V353.6C302.391,354.869,301.363,355.902,300.095,355.902
			z M323.703,306.013h-10.495c-1.269,0-2.302,1.033-2.302,2.302V353.6c0,1.27,1.033,2.303,2.302,2.303h10.495
			c1.269,0,2.302-1.033,2.302-2.303v-45.285C326.005,307.046,324.972,306.013,323.703,306.013z M347.311,285.227h-10.489
			c-1.275,0-2.302,1.033-2.302,2.302V353.6c0,1.27,1.027,2.303,2.302,2.303h10.489c1.274,0,2.302-1.033,2.302-2.303v-66.071
			C349.613,286.26,348.585,285.227,347.311,285.227z M370.925,309.243H360.43c-1.269,0-2.302,1.033-2.302,2.302V353.6
			c0,1.27,1.033,2.303,2.302,2.303h10.496c1.269,0,2.302-1.033,2.302-2.303v-42.055
			C373.227,310.276,372.194,309.243,370.925,309.243z M394.533,290.332h-10.489c-1.274,0-2.302,1.033-2.302,2.302V353.6
			c0,1.27,1.027,2.303,2.302,2.303h10.489c1.274,0,2.302-1.033,2.302-2.303v-60.966
			C396.835,291.365,395.808,290.332,394.533,290.332z"/>
		<g>
			<linearGradient id="SVGID_58_" gradientUnits="userSpaceOnUse" x1="396.5586" y1="275.1294" x2="291.4926" y2="344.2935">
				<stop  offset="0.0028" style="stop-color:#FFFFFF"/>
				<stop  offset="1" style="stop-color:#D6E3FA"/>
			</linearGradient>
			<path fill="url(#SVGID_58_)" d="M282.725,327.3c-0.279,0-0.514-0.21-0.532-0.495c-0.025-0.297,0.198-0.551,0.495-0.575
				c0.229-0.019,23.206-1.912,35.384-12.537c5.303-4.623,8.447-9.889,11.225-14.536c3.713-6.213,6.64-11.114,12.896-11.114
				c5.798,0,9.66,7.902,13.397,15.545c3.273,6.702,6.658,13.639,10.897,13.639c3.831,0,7.098-3.849,10.873-8.298
				c5.551-6.554,12.456-14.697,24.592-14.697c0.297,0,0.538,0.241,0.538,0.538s-0.241,0.538-0.538,0.538
				c-11.634,0-18.367,7.934-23.77,14.313c-3.954,4.66-7.364,8.683-11.695,8.683c-4.907,0-8.286-6.919-11.863-14.245
				c-3.589-7.346-7.302-14.945-12.432-14.945c-5.644,0-8.298,4.443-11.968,10.595c-2.822,4.715-6.015,10.062-11.448,14.796
				c-12.444,10.86-35.774,12.778-36.009,12.797C282.755,327.3,282.743,327.3,282.725,327.3z"/>
		</g>
	</g>
	<g>
		<g>
			<g>
				<g>
					<radialGradient id="SVGID_59_" cx="143.5308" cy="452.1152" r="83.3357" gradientUnits="userSpaceOnUse">
						<stop  offset="0" style="stop-color:#8DEFB0"/>
						<stop  offset="0.1384" style="stop-color:#88EDAE"/>
						<stop  offset="0.2977" style="stop-color:#7AE7A9"/>
						<stop  offset="0.4667" style="stop-color:#63DCA1"/>
						<stop  offset="0.5727" style="stop-color:#51D49B"/>
						<stop  offset="1" style="stop-color:#36C192"/>
					</radialGradient>
					<path fill="url(#SVGID_59_)" d="M134.727,480.242c-10.136,10.266-33.782,39.419-38.541,37.594
						c-6.671-2.563,2.587-37.347,20.322-55.416c10.489-10.688,23.676-18.577,31.288-9.295
						C151.775,457.977,147.543,467.271,134.727,480.242z"/>
					<linearGradient id="SVGID_60_" gradientUnits="userSpaceOnUse" x1="118.3433" y1="429.7549" x2="118.3433" y2="518.3588">
						<stop  offset="0" style="stop-color:#8DEFB0"/>
						<stop  offset="0.0564" style="stop-color:#82E9AB"/>
						<stop  offset="0.2792" style="stop-color:#5DD398"/>
						<stop  offset="0.4593" style="stop-color:#46C68D"/>
						<stop  offset="0.5727" style="stop-color:#3EC189"/>
						<stop  offset="1" style="stop-color:#1B9C74"/>
					</linearGradient>
					<path fill="url(#SVGID_60_)" d="M141.063,461.888c1.343-0.18,2.661-0.495,3.923-0.966l-0.024-0.08
						c-1.318,0.211-2.643,0.315-3.948,0.341c-1.194-0.093-2.345-0.025-3.564,0.136c2.11-1.851,4.214-3.713,6.405-5.458l-0.056-0.074
						c-3.187,2.463-6.293,5.037-9.307,7.717c0.916-1.56,1.751-3.088,2.438-4.734c0.86-1.714,1.801-3.403,2.84-5.037l-0.068-0.049
						c-1.256,1.484-2.382,3.075-3.397,4.746c-1.096,1.571-1.819,3.397-2.073,5.321c-3.602,3.212-7.011,6.641-10.297,10.174
						c0.446-1.677,1.009-3.286,1.807-4.809c0.743-1.677,1.64-3.292,2.562-4.9c1.912-3.175,4.127-6.188,6.51-9.054l-0.068-0.062
						c-2.581,2.704-4.969,5.6-7.042,8.737c-1.064,1.547-2.029,3.175-2.772,4.92c-0.606,1.732-1.219,3.527-1.188,5.384
						c-3.422,3.688-6.621,7.562-9.629,11.603c0.638-2.37,1.467-4.666,2.494-6.888c1.027-2.487,2.135-4.95,3.292-7.389
						c2.364-4.852,4.951-9.61,7.686-14.282l-0.074-0.043c-2.958,4.536-5.724,9.202-8.243,14.01c-1.299,2.383-2.469,4.839-3.484,7.37
						c-0.841,2.457-1.732,4.951-1.931,7.568c-0.873,1.188-1.832,2.314-2.667,3.533c-1.349,1.949-2.537,4.01-3.775,6.027
						c0.186-2.092,0.464-4.146,0.965-6.176c0.433-2.289,1.009-4.548,1.603-6.813c1.269-4.505,2.834-8.941,4.598-13.292l-0.081-0.031
						c-2.005,4.252-3.769,8.627-5.198,13.119c-0.742,2.24-1.386,4.518-1.794,6.851c-0.272,2.197-0.526,4.425-0.278,6.634
						c-2.803,4.604-5.433,9.313-7.661,14.221c-0.241,0.538-0.452,1.089-0.687,1.634c0.05-2.061,0.223-4.103,0.644-6.108
						c0.377-2.407,0.978-4.777,1.603-7.141c1.349-4.703,3.106-9.308,5.148-13.781l-0.081-0.037
						c-2.271,4.362-4.232,8.904-5.749,13.614c-0.773,2.345-1.442,4.74-1.801,7.203c-0.217,2.259-0.377,4.561,0.006,6.801
						c-2.753,6.528-5.148,13.205-6.949,20.044l0.087,0.024c2.803-8.583,6.207-16.95,10.173-25.031
						c1.986-0.502,3.874-1.324,5.52-2.537c1.894-1.25,3.695-2.643,5.291-4.239l-0.062-0.068c-1.758,1.398-3.657,2.605-5.601,3.701
						c-1.702,0.829-3.329,1.775-4.963,2.772c1.188-2.401,2.358-4.809,3.664-7.147c2.19-0.224,4.307-0.923,6.2-1.993
						c2.117-1.058,4.165-2.24,6.126-3.539l-0.043-0.074c-2.091,1.076-4.22,2.066-6.374,2.97c-1.962,0.688-3.824,1.522-5.737,2.346
						c1.622-2.902,3.36-5.736,5.174-8.527c2.519-0.489,4.957-1.275,7.221-2.457c2.5-1.17,4.963-2.45,7.191-4.078l-0.056-0.074
						c-2.352,1.405-4.876,2.487-7.414,3.503l-3.836,1.441c-0.953,0.471-1.937,0.866-2.902,1.324
						c0.148-0.223,0.266-0.458,0.415-0.681c2.116-3.156,4.381-6.2,6.757-9.165c2.723,0,5.434-0.396,8.008-1.28
						c2.716-0.817,5.421-1.801,7.791-3.379l-0.056-0.074c-2.469,1.337-5.198,2.11-7.921,2.766l-4.115,0.842
						c-1.17,0.347-2.364,0.576-3.552,0.916c2.593-3.212,5.328-6.306,8.181-9.295c0.99,0.508,2.092,0.699,3.181,0.879
						c1.188,0.043,2.37-0.074,3.521-0.315c2.308-0.434,4.536-1.163,6.64-2.147l-0.038-0.087c-2.184,0.749-4.443,1.263-6.702,1.535
						c-2.166,0.111-4.257,0.217-6.442-0.019c3.249-3.392,6.683-6.597,10.21-9.703C138.452,462.042,139.795,462.185,141.063,461.888z
						"/>
				</g>
			</g>
			<g>
				<g>
					<g>
						
							<radialGradient id="SVGID_61_" cx="284.2642" cy="461.8818" r="67.0203" gradientTransform="matrix(-0.998 0.0638 0.0638 0.998 288.9142 -9.1379)" gradientUnits="userSpaceOnUse">
							<stop  offset="0" style="stop-color:#8DEFB0"/>
							<stop  offset="0.1384" style="stop-color:#88EDAE"/>
							<stop  offset="0.2977" style="stop-color:#7AE7A9"/>
							<stop  offset="0.4667" style="stop-color:#63DCA1"/>
							<stop  offset="0.5727" style="stop-color:#51D49B"/>
							<stop  offset="1" style="stop-color:#36C192"/>
						</radialGradient>
						<path fill="url(#SVGID_61_)" d="M43.618,490.917c8.311,7.289,26.584,31.083,30.167,29.542
							c5.031-2.159-2.982-32.47-18.212-45.261c-9.01-7.567-19.827-11.553-24.332-3.7C28.89,475.601,33.104,481.709,43.618,490.917z"
							/>
						
							<linearGradient id="SVGID_62_" gradientUnits="userSpaceOnUse" x1="265.7095" y1="443.3945" x2="265.7095" y2="516.0629" gradientTransform="matrix(-0.998 0.0638 0.0638 0.998 288.9142 -9.1379)">
							<stop  offset="0" style="stop-color:#8DEFB0"/>
							<stop  offset="0.0564" style="stop-color:#82E9AB"/>
							<stop  offset="0.2792" style="stop-color:#5DD398"/>
							<stop  offset="0.4593" style="stop-color:#46C68D"/>
							<stop  offset="0.5727" style="stop-color:#3EC189"/>
							<stop  offset="1" style="stop-color:#1B9C74"/>
						</linearGradient>
						<path fill="url(#SVGID_62_)" d="M37.25,477.34c-1.021,0-2.03-0.1-3.02-0.315c0.006-0.031,0.006-0.044,0.012-0.068
							c0.996,0.019,1.993-0.037,2.97-0.161c0.879-0.198,1.739-0.266,2.661-0.272c-1.77-1.2-3.54-2.382-5.378-3.446
							c0.013-0.025,0.025-0.037,0.038-0.063c2.654,1.485,5.248,3.119,7.778,4.89c-0.848-1.114-1.634-2.21-2.333-3.397
							c-0.835-1.226-1.739-2.407-2.71-3.521c0.019-0.024,0.025-0.031,0.043-0.056c1.114,0.984,2.147,2.073,3.088,3.249
							c0.996,1.089,1.739,2.419,2.129,3.886c3.02,2.129,5.891,4.512,8.657,7.067c-0.477-1.306-1.046-2.537-1.789-3.67
							c-0.718-1.263-1.547-2.476-2.407-3.626c-1.714-2.302-3.75-4.419-5.866-6.35c0.012-0.024,0.024-0.03,0.037-0.056
							c2.246,1.782,4.356,3.813,6.238,6.04c0.94,1.12,1.844,2.314,2.568,3.633c0.619,1.324,1.244,2.697,1.38,4.183
							c2.872,2.667,5.563,5.582,8.063,8.72c-0.625-1.906-1.411-3.726-2.352-5.465c-0.959-1.942-1.993-3.861-3.082-5.711
							c-2.191-3.701-4.654-7.24-7.247-10.601c0.019-0.019,0.031-0.031,0.049-0.05c2.742,3.236,5.303,6.721,7.636,10.334
							c1.17,1.808,2.277,3.713,3.237,5.7c0.823,1.942,1.665,3.929,1.974,6.064c0.73,0.922,1.51,1.801,2.209,2.766
							c1.114,1.541,2.11,3.193,3.125,4.833c-0.229-1.732-0.539-3.44-1.027-5.099c-0.452-1.882-1.021-3.744-1.634-5.558
							c-1.225-3.626-2.815-7.172-4.554-10.557c0.019-0.019,0.031-0.025,0.056-0.037c1.912,3.286,3.595,6.775,4.994,10.377
							c0.699,1.801,1.343,3.67,1.782,5.595c0.328,1.813,0.625,3.663,0.532,5.514c2.296,3.731,4.443,7.667,6.126,11.801
							c0.186,0.452,0.353,0.922,0.532,1.386c-0.056-1.757-0.21-3.496-0.569-5.191c-0.334-2.042-0.842-4.065-1.411-6.021
							c-1.132-3.911-2.741-7.735-4.567-11.343c0.019-0.019,0.031-0.024,0.056-0.043c1.993,3.509,3.701,7.265,5.019,11.188
							c0.656,1.962,1.237,3.985,1.559,6.084c0.21,1.918,0.359,3.88,0.087,5.792c2.104,5.551,3.799,11.349,4.876,17.333
							c-0.024,0.013-0.037,0.013-0.062,0.019c-1.758-7.531-4.239-14.753-7.358-21.535c-1.498-0.39-2.933-1.052-4.196-2.029
							c-1.448-1.003-2.834-2.117-4.084-3.392c0.019-0.019,0.024-0.031,0.043-0.056c1.368,1.102,2.822,2.061,4.307,2.927
							c1.3,0.662,2.537,1.43,3.781,2.247c-0.928-2.012-1.869-4.017-2.927-5.935c-1.652-0.124-3.261-0.644-4.728-1.461
							c-1.627-0.798-3.206-1.689-4.734-2.667c0.013-0.024,0.019-0.043,0.031-0.068c1.615,0.792,3.249,1.522,4.901,2.19
							c1.498,0.502,2.927,1.133,4.388,1.771c-1.318-2.383-2.742-4.679-4.245-6.894c-1.912-0.285-3.781-0.811-5.545-1.652
							c-1.937-0.817-3.855-1.708-5.631-2.878c0.013-0.024,0.019-0.037,0.037-0.062c1.851,0.978,3.806,1.708,5.768,2.395
							c1.182,0.39,1.77,0.582,2.958,0.978c0.736,0.341,1.491,0.619,2.24,0.947c-0.124-0.174-0.223-0.365-0.347-0.538
							c-1.745-2.494-3.651-4.858-5.644-7.092c-2.036,0.179-4.09,0.037-6.083-0.483c-2.085-0.458-4.183-1.039-6.083-2.085
							c0.019-0.024,0.025-0.037,0.037-0.062c1.949,0.854,4.053,1.262,6.132,1.59c1.256,0.148,1.888,0.229,3.144,0.384
							c0.904,0.191,1.813,0.297,2.723,0.495c-2.172-2.426-4.474-4.69-6.875-6.813c-0.693,0.482-1.498,0.73-2.296,0.966
							c-0.885,0.13-1.782,0.13-2.655,0.049c-1.745-0.154-3.49-0.514-5.149-1.083c0.013-0.024,0.013-0.037,0.025-0.067
							c1.696,0.377,3.422,0.581,5.136,0.594c1.627-0.099,3.199-0.191,4.802-0.563c-2.729-2.407-5.613-4.579-8.577-6.596
							C39.212,477.185,38.222,477.433,37.25,477.34z"/>
					</g>
				</g>
			</g>
			<g>
				<g>
					
						<radialGradient id="SVGID_63_" cx="212.5254" cy="449.4844" r="103.809" gradientTransform="matrix(-0.9134 -0.407 -0.407 0.9134 441.211 95.5843)" gradientUnits="userSpaceOnUse">
						<stop  offset="0" style="stop-color:#8DEFB0"/>
						<stop  offset="0.1384" style="stop-color:#88EDAE"/>
						<stop  offset="0.2977" style="stop-color:#7AE7A9"/>
						<stop  offset="0.4667" style="stop-color:#63DCA1"/>
						<stop  offset="0.5727" style="stop-color:#51D49B"/>
						<stop  offset="1" style="stop-color:#36C192"/>
					</radialGradient>
					<path fill="url(#SVGID_63_)" d="M59.905,456.114c6.331,16.813,18.453,61.975,24.79,62.31c8.893,0.47,15.997-43.801,4.975-73.35
						c-6.516-17.476-17.513-33.144-30.885-26.442C51.799,422.141,51.897,434.857,59.905,456.114z"/>
					
						<linearGradient id="SVGID_64_" gradientUnits="userSpaceOnUse" x1="181.1489" y1="421.6318" x2="181.1489" y2="532.0004" gradientTransform="matrix(-0.9134 -0.407 -0.407 0.9134 441.211 95.5843)">
						<stop  offset="0" style="stop-color:#8DEFB0"/>
						<stop  offset="0.0564" style="stop-color:#82E9AB"/>
						<stop  offset="0.2792" style="stop-color:#5DD398"/>
						<stop  offset="0.4593" style="stop-color:#46C68D"/>
						<stop  offset="0.5727" style="stop-color:#3EC189"/>
						<stop  offset="1" style="stop-color:#1B9C74"/>
					</linearGradient>
					<path fill="url(#SVGID_64_)" d="M62.003,432.018c-1.436-0.886-2.772-1.912-3.973-3.082l0.074-0.087
						c1.386,0.91,2.84,1.702,4.319,2.396c1.405,0.494,2.673,1.156,3.985,1.955c-1.467-3.175-2.915-6.355-4.518-9.456l0.093-0.049
						c2.382,4.412,4.604,8.917,6.677,13.49c-0.248-2.234-0.421-4.4-0.372-6.615c-0.105-2.389-0.322-4.79-0.681-7.172l0.105-0.025
						c0.681,2.327,1.151,4.709,1.46,7.123c0.445,2.345,0.34,4.783-0.34,7.104c2.469,5.483,4.61,11.108,6.56,16.795
						c0.346-2.129,0.513-4.251,0.377-6.38c0.006-2.29-0.198-4.585-0.427-6.881c-0.563-4.58-1.56-9.128-2.815-13.596l0.105-0.037
						c1.566,4.381,2.816,8.893,3.583,13.509c0.421,2.302,0.706,4.641,0.662,7.005c-0.192,2.277-0.402,4.629-1.38,6.727
						c2.023,5.929,3.701,11.962,5.068,18.082c0.476-3.02,0.699-6.052,0.662-9.103c0.086-3.348,0.074-6.708-0.006-10.075
						c-0.229-6.72-0.755-13.446-1.504-20.143l0.111-0.019c1.064,6.665,1.851,13.373,2.277,20.124
						c0.266,3.367,0.353,6.758,0.223,10.149c-0.284,3.224-0.538,6.516-1.64,9.585c0.396,1.801,0.91,3.571,1.244,5.378
						c0.545,2.902,0.854,5.842,1.238,8.774c0.848-2.475,1.572-4.956,2.036-7.519c0.668-2.821,1.157-5.692,1.627-8.564
						c0.841-5.773,1.312-11.608,1.503-17.45h0.112c0.124,5.854-0.087,11.72-0.737,17.562c-0.291,2.921-0.711,5.842-1.429,8.707
						c-0.805,2.637-1.652,5.297-3.051,7.686c0.86,6.659,1.46,13.349,1.516,20.063c-0.006,0.736-0.043,1.473-0.056,2.209
						c0.99-2.37,1.832-4.777,2.364-7.283c0.792-2.921,1.312-5.929,1.801-8.93c0.848-6.04,1.182-12.166,1.126-18.286l0.111-0.006
						c0.377,6.12,0.303,12.277-0.359,18.403c-0.31,3.057-0.761,6.12-1.609,9.109c-0.897,2.673-1.881,5.377-3.453,7.735
						c-0.173,8.818-0.835,17.63-2.252,26.324l-0.112-0.012c1.164-11.188,1.535-22.433,1.12-33.64
						c-2.011-1.578-3.744-3.472-4.994-5.687c-1.529-2.377-2.865-4.877-3.874-7.507l0.099-0.043c1.293,2.481,2.84,4.82,4.499,7.048
						c1.516,1.813,2.884,3.713,4.239,5.675c-0.13-3.335-0.241-6.671-0.539-9.994c-2.382-1.361-4.431-3.23-6.052-5.408
						c-1.869-2.277-3.596-4.653-5.173-7.135l0.093-0.063c1.832,2.284,3.75,4.493,5.749,6.609c1.875,1.776,3.577,3.67,5.334,5.582
						c-0.377-4.128-0.916-8.23-1.565-12.327c-2.618-1.825-4.988-3.961-6.974-6.454c-2.247-2.6-4.4-5.304-6.108-8.293l0.093-0.049
						c1.968,2.791,4.294,5.303,6.665,7.741l3.639,3.589c0.848,1.016,1.758,1.968,2.624,2.977c-0.056-0.328-0.068-0.655-0.124-0.983
						c-0.811-4.666-1.844-9.282-3.044-13.85c-3.094-1.386-5.978-3.212-8.459-5.52c-2.673-2.309-5.248-4.803-7.147-7.798l0.093-0.056
						c2.135,2.772,4.852,5.044,7.611,7.166l4.257,3.045c1.157,0.984,2.401,1.851,3.577,2.841c-1.318-4.97-2.865-9.877-4.598-14.722
						c-1.374,0.074-2.729-0.261-4.06-0.613c-1.374-0.557-2.661-1.293-3.849-2.141c-2.407-1.671-4.573-3.627-6.461-5.817l0.081-0.074
						c2.104,1.955,4.412,3.688,6.851,5.143c2.407,1.219,4.734,2.407,7.339,3.249c-1.974-5.508-4.257-10.897-6.695-16.22
						C64.899,433.521,63.296,433.001,62.003,432.018z"/>
				</g>
			</g>
		</g>
		<radialGradient id="SVGID_65_" cx="95.4722" cy="515.877" r="42.144" fx="92.0735" fy="515.7673" gradientUnits="userSpaceOnUse">
			<stop  offset="0" style="stop-color:#EAF2FF"/>
			<stop  offset="0.2212" style="stop-color:#E5EFFE"/>
			<stop  offset="0.4754" style="stop-color:#D7E6FB"/>
			<stop  offset="0.5727" style="stop-color:#D0E1FA"/>
			<stop  offset="1" style="stop-color:#B5CCED"/>
		</radialGradient>
		<path fill="url(#SVGID_65_)" d="M113.86,511.561H55.276c-1.002,3.038-1.56,6.281-1.56,9.653c0,11.3,6.089,21.151,15.143,26.523
			h31.418c9.053-5.372,15.148-15.224,15.148-26.523C115.426,517.842,114.863,514.599,113.86,511.561z"/>
	</g>
	<g>
		<linearGradient id="SVGID_66_" gradientUnits="userSpaceOnUse" x1="593.3301" y1="150.2817" x2="700.0323" y2="85.2792">
			<stop  offset="0" style="stop-color:#D6E3FA"/>
			<stop  offset="0.8721" style="stop-color:#A8BEE6"/>
			<stop  offset="1" style="stop-color:#A1B8E3"/>
		</linearGradient>
		<path fill="url(#SVGID_66_)" d="M683.375,80.857c0,15.783-6.418,30.093-16.783,40.458s-24.679,16.786-40.458,16.786l0,0
			c-15.786,0-30.094-6.42-40.459-16.786l-9.696,9.694c12.847,12.85,30.588,20.808,50.155,20.808l0,0
			c19.561,0,37.303-7.958,50.149-20.805c12.853-12.85,20.811-30.591,20.811-50.155H683.375z"/>
		<linearGradient id="SVGID_67_" gradientUnits="userSpaceOnUse" x1="686.4844" y1="81.188" x2="671.7666" y2="5.1463">
			<stop  offset="0" style="stop-color:#59A3F2"/>
			<stop  offset="0.6706" style="stop-color:#2B75DB"/>
			<stop  offset="1" style="stop-color:#135DCF"/>
		</linearGradient>
		<path fill="url(#SVGID_67_)" d="M676.289,30.702l-9.697,9.697c10.365,10.365,16.783,24.675,16.783,40.455v0.003h13.719v-0.003
			C697.094,61.29,689.136,43.552,676.289,30.702z"/>
		<linearGradient id="SVGID_68_" gradientUnits="userSpaceOnUse" x1="639.9268" y1="19.96" x2="550.3935" y2="105.2004">
			<stop  offset="0" style="stop-color:#D6E3FA"/>
			<stop  offset="0.8721" style="stop-color:#A8BEE6"/>
			<stop  offset="1" style="stop-color:#A1B8E3"/>
		</linearGradient>
		<path fill="url(#SVGID_68_)" d="M626.134,9.897L626.134,9.897c-19.567,0-37.309,7.958-50.155,20.805
			c-12.854,12.85-20.812,30.592-20.812,50.152v0.003c0,19.564,7.964,37.306,20.812,50.152l9.696-9.694
			c-10.365-10.365-16.788-24.675-16.788-40.458v-0.003c0-15.78,6.423-30.09,16.788-40.455s24.673-16.786,40.459-16.786l0,0
			c15.779,0,30.093,6.42,40.458,16.786l9.697-9.697C663.437,17.855,645.694,9.897,626.134,9.897z"/>
	</g>
	<g>
		<linearGradient id="SVGID_69_" gradientUnits="userSpaceOnUse" x1="141.9946" y1="190.2021" x2="-43.1012" y2="299.1389">
			<stop  offset="0" style="stop-color:#59A3F2"/>
			<stop  offset="0.6706" style="stop-color:#2B75DB"/>
			<stop  offset="1" style="stop-color:#135DCF"/>
		</linearGradient>
		<path fill="url(#SVGID_69_)" d="M132.58,182.712H17.992c-5.866,0-10.622,4.755-10.622,10.619v64.484
			c0,5.864,4.756,10.623,10.622,10.623h83.894l17.339,17.339v-17.339h13.354c5.867,0,10.619-4.759,10.619-10.623v-64.484
			C143.199,187.468,138.446,182.712,132.58,182.712z"/>
		<linearGradient id="SVGID_70_" gradientUnits="userSpaceOnUse" x1="115.8892" y1="225.0024" x2="28.1568" y2="225.0025">
			<stop  offset="0.0028" style="stop-color:#FFFFFF"/>
			<stop  offset="1" style="stop-color:#D6E3FA"/>
		</linearGradient>
		<path fill="url(#SVGID_70_)" d="M123.885,205.052v4.904c0,0.266-0.217,0.486-0.489,0.486H27.176c-0.266,0-0.489-0.22-0.489-0.486
			v-4.904c0-0.269,0.223-0.486,0.489-0.486h96.221C123.668,204.566,123.885,204.783,123.885,205.052z M123.396,222.066H27.176
			c-0.266,0-0.489,0.216-0.489,0.486v4.901c0,0.269,0.223,0.486,0.489,0.486h96.221c0.272,0,0.489-0.217,0.489-0.486v-4.901
			C123.885,222.283,123.668,222.066,123.396,222.066z M87.703,239.563H27.176c-0.266,0-0.489,0.22-0.489,0.486v4.904
			c0,0.269,0.223,0.486,0.489,0.486h60.527c0.272,0,0.489-0.217,0.489-0.486v-4.904C88.191,239.783,87.975,239.563,87.703,239.563z"
			/>
		<defs>
			<filter id="Adobe_OpacityMaskFilter_4_" filterUnits="userSpaceOnUse" x="7.374" y="182.712" width="132.904" height="82.798">
				<feFlood  style="flood-color:white;flood-opacity:1" result="back"/>
				<feBlend  in="SourceGraphic" in2="back" mode="normal"/>
			</filter>
		</defs>
		<mask maskUnits="userSpaceOnUse" x="7.374" y="182.712" width="132.904" height="82.798" id="SVGID_71_">
			<g filter="url(#Adobe_OpacityMaskFilter_4_)">
				<defs>
					<filter id="Adobe_OpacityMaskFilter_5_" filterUnits="userSpaceOnUse" x="7.374" y="182.712" width="132.904" height="82.798">
						<feFlood  style="flood-color:white;flood-opacity:1" result="back"/>
						<feBlend  in="SourceGraphic" in2="back" mode="normal"/>
					</filter>
				</defs>
				<mask maskUnits="userSpaceOnUse" x="7.374" y="182.712" width="132.904" height="82.798" id="SVGID_71_">
					<g filter="url(#Adobe_OpacityMaskFilter_5_)">
					</g>
				</mask>
				
					<linearGradient id="SVGID_72_" gradientUnits="userSpaceOnUse" x1="-893.5356" y1="161.4019" x2="-837.8995" y2="244.1937" gradientTransform="matrix(1 0 0 1 925.6079 0)">
					<stop  offset="0.0014" style="stop-color:#FFFFFF"/>
					<stop  offset="0.0771" style="stop-color:#E6E6E6"/>
					<stop  offset="0.3388" style="stop-color:#969696"/>
					<stop  offset="0.5712" style="stop-color:#555555"/>
					<stop  offset="0.7655" style="stop-color:#272727"/>
					<stop  offset="0.9144" style="stop-color:#0B0B0B"/>
					<stop  offset="1" style="stop-color:#000000"/>
				</linearGradient>
				<path mask="url(#SVGID_71_)" fill="url(#SVGID_72_)" d="M7.782,258.224v-64.481c0-5.866,4.752-10.622,10.619-10.622h114.587
					c2.828,0,5.383,1.124,7.29,2.927c-1.937-2.045-4.66-3.335-7.698-3.335H17.992c-5.866,0-10.619,4.755-10.619,10.619v64.484
					c0,3.036,1.29,5.758,3.332,7.695C8.905,263.605,7.782,261.055,7.782,258.224z"/>
			</g>
		</mask>
		
			<linearGradient id="SVGID_73_" gradientUnits="userSpaceOnUse" x1="-893.5356" y1="161.4019" x2="-837.8995" y2="244.1937" gradientTransform="matrix(1 0 0 1 925.6079 0)">
			<stop  offset="0.0014" style="stop-color:#F6FCFC"/>
			<stop  offset="0.5017" style="stop-color:#ECEDFC"/>
			<stop  offset="1" style="stop-color:#E5E2FC"/>
		</linearGradient>
		<path opacity="0.4" fill="url(#SVGID_73_)" d="M7.782,258.224v-64.481c0-5.866,4.752-10.622,10.619-10.622h114.587
			c2.828,0,5.383,1.124,7.29,2.927c-1.937-2.045-4.66-3.335-7.698-3.335H17.992c-5.866,0-10.619,4.755-10.619,10.619v64.484
			c0,3.036,1.29,5.758,3.332,7.695C8.905,263.605,7.782,261.055,7.782,258.224z"/>
	</g>
	<g>
		<linearGradient id="SVGID_74_" gradientUnits="userSpaceOnUse" x1="700.4805" y1="346.4521" x2="658.2297" y2="428.1367">
			<stop  offset="0" style="stop-color:#D6E3FA"/>
			<stop  offset="0.8721" style="stop-color:#A8BEE6"/>
			<stop  offset="1" style="stop-color:#A1B8E3"/>
		</linearGradient>
		<path fill="url(#SVGID_74_)" d="M675.831,397.022c-18.181,0-32.921,14.74-32.921,32.922c0,9.09,3.688,17.314,9.641,23.273
			l23.28-23.273V397.022z"/>
		<linearGradient id="SVGID_75_" gradientUnits="userSpaceOnUse" x1="700.2949" y1="433.6016" x2="612.9791" y2="256.8576">
			<stop  offset="0" style="stop-color:#D6E3FA"/>
			<stop  offset="0.8721" style="stop-color:#A8BEE6"/>
			<stop  offset="1" style="stop-color:#A1B8E3"/>
		</linearGradient>
		<path fill="url(#SVGID_75_)" d="M679.488,395.729v32.921h32.915C712.403,410.47,697.663,395.729,679.488,395.729z"/>
		<linearGradient id="SVGID_76_" gradientUnits="userSpaceOnUse" x1="734.4727" y1="423.1563" x2="616.1757" y2="480.8965">
			<stop  offset="0" style="stop-color:#59A3F2"/>
			<stop  offset="0.6706" style="stop-color:#2B75DB"/>
			<stop  offset="1" style="stop-color:#135DCF"/>
		</linearGradient>
		<path fill="url(#SVGID_76_)" d="M654.915,455.582c5.959,5.959,14.189,9.642,23.28,9.642c18.175,0,32.915-14.734,32.915-32.916
			h-32.915L654.915,455.582z"/>
	</g>
</g>
</svg>
