<svg width="148" height="101" viewBox="0 0 148 101" fill="none" xmlns="http://www.w3.org/2000/svg">
	<path d="M53.34 72.07C50.24 72.07 48.7 70.54 48.7 67.48V37.55H45.43V30.05H48.7V18.72H56.96V30.06H61.26V37.56H56.96V64.58H61.43V72.08H53.34V72.07Z" fill="#01245E"/>
	<path d="M78.71 72.07V70.79L72 71.82C71.37 71.93 70.84 72.03 70.41 72.12C69.98 72.2 69.53 72.25 69.08 72.25C66.16 72.25 64.69 70.74 64.69 67.73V51.45C64.69 48.38 66.27 46.85 69.42 46.85H78.8V36.61H72.69V43.17H65.03V34.65C65.03 31.58 66.61 30.05 69.76 30.05H81.97C85.07 30.05 86.62 31.58 86.62 34.65V72.07H78.71V72.07ZM78.8 52.98H72.69V65.42L78.8 65.16V52.98Z" fill="#01245E"/>
	<path d="M108.9 87.41H96.34C93.19 87.41 91.61 85.88 91.61 82.81V75.48H99.7V81.02H105.29V72.07H98.28C95.94 72.07 94.16 71.46 92.93 70.24C91.7 69.02 91.09 67.27 91.09 65V35.76C91.09 33.88 91.56 32.44 92.5 31.41C93.44 30.39 94.82 29.88 96.65 29.88C97.79 29.88 98.87 30.02 99.9 30.31L105.29 31.33V30.05H113.55V82.81C113.55 85.88 112 87.41 108.9 87.41ZM105.29 37.38L102.62 37.04C102.4 36.98 102.15 36.95 101.87 36.95C101.65 36.95 101.42 36.95 101.2 36.95C99.97 36.95 99.36 37.58 99.36 38.83V62.95C99.36 64.37 100.06 65.08 101.45 65.08H105.3V37.38H105.29Z" fill="#01245E"/>
	<path d="M37.71 72.23L11.19 53.04V46.57L37.7 27.38H38.32V38.57L21.96 49.86L38.43 61.05V72.24H37.71V72.23Z" fill="#01245E"/>
	<path d="M130.85 87.32H121.16V79.56H128.04V19.65H121.16V11.9H130.85C134.48 11.9 136.3 13.69 136.3 17.27V81.88C136.3 85.51 134.48 87.32 130.85 87.32Z" fill="#01245E"/>
	</svg>
	